<svg width="18" height="18" viewBox="0 0 18 18" fill="none" xmlns="http://www.w3.org/2000/svg">
<path d="M10.8579 8.04209C10.2953 7.47967 9.53235 7.16373 8.73686 7.16373C7.94137 7.16373 7.17844 7.47967 6.61586 8.04209L3.61586 11.0421C3.32933 11.3188 3.10078 11.6499 2.94356 12.0159C2.78633 12.3819 2.70357 12.7755 2.70011 13.1739C2.69665 13.5722 2.77255 13.9673 2.9234 14.3359C3.07424 14.7046 3.297 15.0396 3.57868 15.3213C3.86035 15.603 4.19531 15.8257 4.564 15.9766C4.93269 16.1274 5.32773 16.2033 5.72607 16.1998C6.1244 16.1964 6.51806 16.1136 6.88408 15.9564C7.25009 15.7992 7.58112 15.5706 7.85786 15.2841L8.68436 14.4583M8.11586 10.7841C8.67845 11.3465 9.44137 11.6624 10.2369 11.6624C11.0324 11.6624 11.7953 11.3465 12.3579 10.7841L15.3579 7.78409C15.9043 7.21828 16.2067 6.46047 16.1999 5.67388C16.193 4.88729 15.8775 4.13486 15.3213 3.57863C14.7651 3.02241 14.0127 2.7069 13.2261 2.70006C12.4395 2.69323 11.6817 2.99561 11.1159 3.54209L10.2909 4.36709" stroke="#8B949E" stroke-width="1.6" stroke-linecap="round" stroke-linejoin="round"/>
</svg>
