<svg width="28" height="29" viewBox="0 0 28 29" fill="none" xmlns="http://www.w3.org/2000/svg">
<path d="M23.3333 26.1667H21.385C20.7662 26.1667 20.1727 25.9208 19.7351 25.4833C19.2975 25.0457 19.0517 24.4522 19.0517 23.8333V17.5683C19.0621 17.3226 18.9878 17.0808 18.8413 16.8833C18.6948 16.6858 18.4848 16.5446 18.2467 16.4833C18.1081 16.4622 17.9666 16.4711 17.8318 16.5093C17.6969 16.5476 17.5719 16.6143 17.465 16.705C17.355 16.7983 17.2667 16.9146 17.2063 17.0455C17.1458 17.1765 17.1147 17.3191 17.115 17.4633V23.8333C17.115 24.4522 16.8692 25.0457 16.4316 25.4833C15.994 25.9208 15.4005 26.1667 14.7817 26.1667H12.8333C12.2145 26.1667 11.621 25.9208 11.1834 25.4833C10.7458 25.0457 10.5 24.4522 10.5 23.8333V17.4633C10.5 16.4675 10.6961 15.4814 11.0772 14.5613C11.4583 13.6413 12.0169 12.8053 12.7211 12.1011C13.4253 11.3969 14.2613 10.8384 15.1813 10.4573C16.1014 10.0762 17.0875 9.88 18.0833 9.88C19.0792 9.88 20.0653 10.0762 20.9853 10.4573C21.9054 10.8384 22.7414 11.3969 23.4456 12.1011C24.1497 12.8053 24.7083 13.6413 25.0894 14.5613C25.4705 15.4814 25.6667 16.4675 25.6667 17.4633V23.8333C25.6667 24.4522 25.4208 25.0457 24.9832 25.4833C24.5457 25.9208 23.9522 26.1667 23.3333 26.1667ZM18.0833 14.1383C18.2659 14.1268 18.4491 14.1268 18.6317 14.1383C19.4149 14.289 20.1201 14.7106 20.6236 15.3293C21.1271 15.948 21.3966 16.7241 21.385 17.5217V23.8333H23.3333V17.4633C23.3333 16.071 22.7802 14.7356 21.7956 13.751C20.8111 12.7665 19.4757 12.2133 18.0833 12.2133C16.6909 12.2133 15.3556 12.7665 14.371 13.751C13.3865 14.7356 12.8333 16.071 12.8333 17.4633V23.8333H14.7817V17.4633C14.7816 16.5855 15.1288 15.7433 15.7473 15.1204C16.3658 14.4975 17.2055 14.1445 18.0833 14.1383Z" fill="white"/>
<path d="M6.99998 26.1666H4.66665C4.04781 26.1666 3.45432 25.9208 3.01673 25.4832C2.57915 25.0456 2.33331 24.4521 2.33331 23.8333V12.1666C2.33331 11.5477 2.57915 10.9543 3.01673 10.5167C3.45432 10.0791 4.04781 9.83325 4.66665 9.83325H6.99998C7.61882 9.83325 8.21231 10.0791 8.6499 10.5167C9.08748 10.9543 9.33331 11.5477 9.33331 12.1666V23.8333C9.33331 24.4521 9.08748 25.0456 8.6499 25.4832C8.21231 25.9208 7.61882 26.1666 6.99998 26.1666ZM4.66665 12.1666V23.8333H6.99998V12.1666H4.66665Z" fill="white"/>
<path d="M5.83335 8.66663C5.14111 8.66663 4.46442 8.46136 3.88885 8.07677C3.31328 7.69219 2.86467 7.14556 2.59977 6.50602C2.33486 5.86648 2.26555 5.16275 2.4006 4.48381C2.53564 3.80488 2.86899 3.18124 3.35847 2.69175C3.84796 2.20227 4.4716 1.86893 5.15053 1.73388C5.82946 1.59883 6.5332 1.66814 7.17274 1.93305C7.81228 2.19796 8.3589 2.64656 8.74349 3.22213C9.12807 3.7977 9.33335 4.47439 9.33335 5.16663C9.33335 6.09489 8.9646 6.98512 8.30822 7.6415C7.65184 8.29788 6.7616 8.66663 5.83335 8.66663ZM5.83335 3.99996C5.6026 3.99996 5.37704 4.06839 5.18518 4.19658C4.99332 4.32477 4.84379 4.50698 4.75549 4.72016C4.66718 4.93334 4.64408 5.16792 4.6891 5.39423C4.73411 5.62054 4.84523 5.82842 5.00839 5.99159C5.17155 6.15475 5.37943 6.26586 5.60574 6.31088C5.83205 6.35589 6.06663 6.33279 6.27981 6.24449C6.49299 6.15619 6.6752 6.00665 6.80339 5.81479C6.93159 5.62294 7.00001 5.39737 7.00001 5.16663C7.00001 4.85721 6.8771 4.56046 6.6583 4.34167C6.43951 4.12288 6.14276 3.99996 5.83335 3.99996Z" fill="white"/>
<path d="M23.3333 26.1667H21.385C20.7661 26.1667 20.1726 25.9208 19.7351 25.4833C19.2975 25.0457 19.0516 24.4522 19.0516 23.8333V17.5683C19.0621 17.3226 18.9878 17.0808 18.8413 16.8833C18.6947 16.6858 18.4848 16.5446 18.2466 16.4833C18.1081 16.4622 17.9666 16.4711 17.8317 16.5093C17.6969 16.5476 17.5718 16.6143 17.465 16.705C17.355 16.7983 17.2667 16.9146 17.2062 17.0455C17.1458 17.1765 17.1146 17.3191 17.115 17.4633V23.8333C17.115 24.4522 16.8691 25.0457 16.4316 25.4833C15.994 25.9208 15.4005 26.1667 14.7816 26.1667H12.8333C12.2145 26.1667 11.621 25.9208 11.1834 25.4833C10.7458 25.0457 10.5 24.4522 10.5 23.8333V17.4633C10.5 16.4675 10.6961 15.4814 11.0772 14.5613C11.4583 13.6413 12.0169 12.8053 12.7211 12.1011C13.4253 11.3969 14.2612 10.8384 15.1813 10.4573C16.1013 10.0762 17.0874 9.88 18.0833 9.88C19.0792 9.88 20.0653 10.0762 20.9853 10.4573C21.9054 10.8384 22.7414 11.3969 23.4455 12.1011C24.1497 12.8053 24.7083 13.6413 25.0894 14.5613C25.4705 15.4814 25.6666 16.4675 25.6666 17.4633V23.8333C25.6666 24.4522 25.4208 25.0457 24.9832 25.4833C24.5456 25.9208 23.9521 26.1667 23.3333 26.1667ZM18.0833 14.1383C18.2659 14.1268 18.449 14.1268 18.6316 14.1383C19.4149 14.289 20.1201 14.7106 20.6236 15.3293C21.127 15.948 21.3966 16.7241 21.385 17.5217V23.8333H23.3333V17.4633C23.3333 16.071 22.7802 14.7356 21.7956 13.751C20.811 12.7665 19.4757 12.2133 18.0833 12.2133C16.6909 12.2133 15.3556 12.7665 14.371 13.751C13.3864 14.7356 12.8333 16.071 12.8333 17.4633V23.8333H14.7816V17.4633C14.7816 16.5855 15.1287 15.7433 15.7472 15.1204C16.3658 14.4975 17.2055 14.1445 18.0833 14.1383Z" fill="white"/>
<path d="M6.99998 26.1666H4.66665C4.04781 26.1666 3.45432 25.9208 3.01673 25.4832C2.57915 25.0456 2.33331 24.4521 2.33331 23.8333V12.1666C2.33331 11.5477 2.57915 10.9543 3.01673 10.5167C3.45432 10.0791 4.04781 9.83325 4.66665 9.83325H6.99998C7.61882 9.83325 8.21231 10.0791 8.6499 10.5167C9.08748 10.9543 9.33331 11.5477 9.33331 12.1666V23.8333C9.33331 24.4521 9.08748 25.0456 8.6499 25.4832C8.21231 25.9208 7.61882 26.1666 6.99998 26.1666ZM4.66665 12.1666V23.8333H6.99998V12.1666H4.66665Z" fill="white"/>
<path d="M5.83335 8.66663C5.14111 8.66663 4.46442 8.46136 3.88885 8.07677C3.31328 7.69219 2.86467 7.14556 2.59977 6.50602C2.33486 5.86648 2.26555 5.16275 2.4006 4.48381C2.53564 3.80488 2.86899 3.18124 3.35847 2.69175C3.84796 2.20227 4.4716 1.86893 5.15053 1.73388C5.82946 1.59883 6.5332 1.66814 7.17274 1.93305C7.81228 2.19796 8.3589 2.64656 8.74349 3.22213C9.12807 3.7977 9.33335 4.47439 9.33335 5.16663C9.33335 6.09489 8.9646 6.98512 8.30822 7.6415C7.65184 8.29788 6.7616 8.66663 5.83335 8.66663ZM5.83335 3.99996C5.6026 3.99996 5.37704 4.06839 5.18518 4.19658C4.99332 4.32477 4.84379 4.50698 4.75549 4.72016C4.66718 4.93334 4.64408 5.16792 4.6891 5.39423C4.73411 5.62054 4.84523 5.82842 5.00839 5.99159C5.17155 6.15475 5.37943 6.26586 5.60574 6.31088C5.83205 6.35589 6.06663 6.33279 6.27981 6.24449C6.49299 6.15619 6.6752 6.00665 6.80339 5.81479C6.93159 5.62294 7.00001 5.39737 7.00001 5.16663C7.00001 4.85721 6.8771 4.56046 6.6583 4.34167C6.43951 4.12288 6.14276 3.99996 5.83335 3.99996Z" fill="white"/>
</svg>
