<svg width="18" height="18" viewBox="0 0 18 18" fill="none" xmlns="http://www.w3.org/2000/svg">
<path d="M11.925 7.34843L5.17499 3.45593" stroke="#8B949E" stroke-width="1.6" stroke-linecap="round" stroke-linejoin="round"/>
<path d="M15.3 12.2984V6.29845C15.2997 6.03541 15.2303 5.77706 15.0986 5.54932C14.967 5.32159 14.7778 5.13247 14.55 5.00095L9.29999 2.00095C9.07196 1.8693 8.81329 1.79999 8.54999 1.79999C8.28668 1.79999 8.02802 1.8693 7.79999 2.00095L2.54999 5.00095C2.32218 5.13247 2.13297 5.32159 2.00133 5.54932C1.86969 5.77706 1.80026 6.03541 1.79999 6.29845V12.2984C1.80026 12.5615 1.86969 12.8198 2.00133 13.0476C2.13297 13.2753 2.32218 13.4644 2.54999 13.5959L7.79999 16.5959C8.02802 16.7276 8.28668 16.7969 8.54999 16.7969C8.81329 16.7969 9.07196 16.7276 9.29999 16.5959L14.55 13.5959C14.7778 13.4644 14.967 13.2753 15.0986 13.0476C15.2303 12.8198 15.2997 12.5615 15.3 12.2984Z" stroke="#8B949E" stroke-width="1.6" stroke-linecap="round" stroke-linejoin="round"/>
<path d="M2.0025 5.51843L8.55 9.30593L15.0975 5.51843" stroke="#8B949E" stroke-width="1.6" stroke-linecap="round" stroke-linejoin="round"/>
<path d="M8.54999 16.8585V9.29846" stroke="#8B949E" stroke-width="1.6" stroke-linecap="round" stroke-linejoin="round"/>
</svg>
