<svg width="18" height="18" viewBox="0 0 18 18" fill="none" xmlns="http://www.w3.org/2000/svg">
<path d="M7.04998 8.69995C7.64332 8.69995 8.22334 8.52401 8.71669 8.19436C9.21004 7.86472 9.59456 7.39618 9.82162 6.848C10.0487 6.29982 10.1081 5.69662 9.99234 5.11468C9.87658 4.53274 9.59086 3.99819 9.1713 3.57863C8.75174 3.15907 8.21719 2.87335 7.63525 2.7576C7.05331 2.64184 6.45011 2.70125 5.90193 2.92831C5.35375 3.15538 4.88522 3.53989 4.55557 4.03324C4.22593 4.52659 4.04998 5.10661 4.04998 5.69995C4.04998 6.4956 4.36605 7.25866 4.92866 7.82127C5.49127 8.38388 6.25433 8.69995 7.04998 8.69995ZM7.04998 4.19995C7.34665 4.19995 7.63666 4.28793 7.88334 4.45275C8.13001 4.61757 8.32227 4.85184 8.4358 5.12593C8.54933 5.40002 8.57904 5.70162 8.52116 5.99259C8.46328 6.28356 8.32042 6.55083 8.11064 6.76061C7.90086 6.97039 7.63359 7.11325 7.34262 7.17113C7.05164 7.22901 6.75004 7.1993 6.47596 7.08577C6.20187 6.97224 5.9676 6.77998 5.80278 6.53331C5.63795 6.28663 5.54998 5.99662 5.54998 5.69995C5.54998 5.30213 5.70802 4.9206 5.98932 4.63929C6.27062 4.35799 6.65216 4.19995 7.04998 4.19995Z" fill="#8B949E"/>
<path d="M13.05 10.2C13.495 10.2 13.93 10.068 14.3 9.82076C14.67 9.57352 14.9584 9.22212 15.1287 8.81099C15.299 8.39986 15.3435 7.94746 15.2567 7.511C15.1699 7.07454 14.9556 6.67363 14.641 6.35896C14.3263 6.04429 13.9254 5.83 13.4889 5.74319C13.0525 5.65637 12.6001 5.70093 12.1889 5.87122C11.7778 6.04152 11.4264 6.32991 11.1792 6.69992C10.9319 7.06993 10.8 7.50494 10.8 7.94995C10.8 8.54669 11.037 9.11899 11.459 9.54094C11.8809 9.9629 12.4532 10.2 13.05 10.2ZM13.05 7.19995C13.1983 7.19995 13.3433 7.24394 13.4666 7.32635C13.59 7.40876 13.6861 7.52589 13.7429 7.66294C13.7996 7.79998 13.8145 7.95078 13.7856 8.09627C13.7566 8.24176 13.6852 8.37539 13.5803 8.48028C13.4754 8.58517 13.3418 8.6566 13.1963 8.68554C13.0508 8.71448 12.9 8.69963 12.763 8.64286C12.6259 8.5861 12.5088 8.48997 12.4264 8.36663C12.344 8.24329 12.3 8.09829 12.3 7.94995C12.3 7.75104 12.379 7.56027 12.5196 7.41962C12.6603 7.27897 12.8511 7.19995 13.05 7.19995Z" fill="#8B949E"/>
<path d="M13.05 10.9499C12.2188 10.9509 11.4116 11.2279 10.755 11.7374C10.0204 11.0057 9.08552 10.5079 8.06835 10.3068C7.05117 10.1056 5.99722 10.2102 5.0394 10.6073C4.08158 11.0044 3.26279 11.6762 2.68629 12.538C2.10978 13.3998 1.80138 14.4131 1.79998 15.4499C1.79998 15.6488 1.879 15.8396 2.01965 15.9803C2.1603 16.1209 2.35107 16.1999 2.54998 16.1999C2.74889 16.1999 2.93966 16.1209 3.08031 15.9803C3.22096 15.8396 3.29998 15.6488 3.29998 15.4499C3.29998 14.4554 3.69507 13.5015 4.39833 12.7983C5.10159 12.095 6.05542 11.6999 7.04998 11.6999C8.04454 11.6999 8.99837 12.095 9.70163 12.7983C10.4049 13.5015 10.8 14.4554 10.8 15.4499C10.8 15.6488 10.879 15.8396 11.0197 15.9803C11.1603 16.1209 11.3511 16.1999 11.55 16.1999C11.7489 16.1999 11.9397 16.1209 12.0803 15.9803C12.221 15.8396 12.3 15.6488 12.3 15.4499C12.3018 14.5713 12.0798 13.7066 11.655 12.9374C11.9864 12.6755 12.3849 12.5122 12.8048 12.4662C13.2247 12.4202 13.6491 12.4933 14.0294 12.6772C14.4098 12.8611 14.7306 13.1483 14.9553 13.506C15.18 13.8637 15.2994 14.2775 15.3 14.6999C15.3 14.8988 15.379 15.0896 15.5196 15.2303C15.6603 15.3709 15.8511 15.4499 16.05 15.4499C16.2489 15.4499 16.4397 15.3709 16.5803 15.2303C16.721 15.0896 16.8 14.8988 16.8 14.6999C16.8 13.7054 16.4049 12.7515 15.7016 12.0483C14.9984 11.345 14.0445 10.9499 13.05 10.9499Z" fill="#8B949E"/>
<path d="M6.75004 8.25C7.34338 8.25 7.9234 8.07405 8.41675 7.74441C8.9101 7.41477 9.29461 6.94623 9.52168 6.39805C9.74874 5.84987 9.80815 5.24667 9.69239 4.66473C9.57664 4.08279 9.29092 3.54824 8.87136 3.12868C8.4518 2.70912 7.91725 2.4234 7.33531 2.30765C6.75337 2.19189 6.15017 2.2513 5.60199 2.47836C5.05381 2.70543 4.58527 3.08994 4.25563 3.58329C3.92598 4.07664 3.75004 4.65666 3.75004 5.25C3.75004 6.04565 4.06611 6.80871 4.62872 7.37132C5.19133 7.93393 5.95439 8.25 6.75004 8.25ZM6.75004 3.75C7.04671 3.75 7.33672 3.83797 7.58339 4.0028C7.83007 4.16762 8.02233 4.40189 8.13586 4.67598C8.24939 4.95007 8.27909 5.25167 8.22122 5.54264C8.16334 5.83361 8.02048 6.10088 7.8107 6.31066C7.60092 6.52044 7.33365 6.6633 7.04267 6.72118C6.7517 6.77906 6.4501 6.74935 6.17601 6.63582C5.90192 6.52229 5.66766 6.33003 5.50283 6.08336C5.33801 5.83668 5.25004 5.54667 5.25004 5.25C5.25004 4.85218 5.40807 4.47065 5.68938 4.18934C5.97068 3.90804 6.35221 3.75 6.75004 3.75Z" fill="#8B949E"/>
<path d="M12.75 9.75C13.195 9.75 13.6301 9.61804 14.0001 9.37081C14.3701 9.12357 14.6585 8.77217 14.8288 8.36104C14.9991 7.9499 15.0436 7.49751 14.9568 7.06105C14.87 6.62459 14.6557 6.22368 14.341 5.90901C14.0264 5.59434 13.6254 5.38005 13.189 5.29323C12.7525 5.20642 12.3001 5.25097 11.889 5.42127C11.4779 5.59157 11.1265 5.87996 10.8792 6.24997C10.632 6.61998 10.5 7.05499 10.5 7.5C10.5 8.09674 10.7371 8.66903 11.159 9.09099C11.581 9.51295 12.1533 9.75 12.75 9.75ZM12.75 6.75C12.8984 6.75 13.0434 6.79399 13.1667 6.8764C13.2901 6.95881 13.3862 7.07594 13.4429 7.21299C13.4997 7.35003 13.5146 7.50083 13.4856 7.64632C13.4567 7.7918 13.3853 7.92544 13.2804 8.03033C13.1755 8.13522 13.0418 8.20665 12.8964 8.23559C12.7509 8.26453 12.6001 8.24968 12.463 8.19291C12.326 8.13615 12.2088 8.04002 12.1264 7.91668C12.044 7.79334 12 7.64834 12 7.5C12 7.30109 12.0791 7.11032 12.2197 6.96967C12.3604 6.82902 12.5511 6.75 12.75 6.75Z" fill="#8B949E"/>
<path d="M13.25 10.2429C12.4189 10.2438 11.6116 10.5208 10.955 11.0304C10.2204 10.2987 9.28554 9.80085 8.26837 9.59972C7.25119 9.39859 6.19724 9.50317 5.23942 9.90025C4.2816 10.2973 3.46281 10.9692 2.88631 11.831C2.3098 12.6928 2.0014 13.706 2 14.7429C2 14.9418 2.07902 15.1326 2.21967 15.2732C2.36032 15.4139 2.55109 15.4929 2.75 15.4929C2.94891 15.4929 3.13968 15.4139 3.28033 15.2732C3.42098 15.1326 3.5 14.9418 3.5 14.7429C3.5 13.7483 3.89509 12.7945 4.59835 12.0913C5.30161 11.388 6.25544 10.9929 7.25 10.9929C8.24456 10.9929 9.19839 11.388 9.90165 12.0913C10.6049 12.7945 11 13.7483 11 14.7429C11 14.9418 11.079 15.1326 11.2197 15.2732C11.3603 15.4139 11.5511 15.4929 11.75 15.4929C11.9489 15.4929 12.1397 15.4139 12.2803 15.2732C12.421 15.1326 12.5 14.9418 12.5 14.7429C12.5018 13.8642 12.2798 12.9996 11.855 12.2304C12.1864 11.9685 12.5849 11.8052 13.0048 11.7591C13.4248 11.7131 13.8492 11.7862 14.2295 11.9701C14.6098 12.154 14.9306 12.4413 15.1553 12.799C15.38 13.1567 15.4995 13.5705 15.5 13.9929C15.5 14.1918 15.579 14.3826 15.7197 14.5232C15.8603 14.6639 16.0511 14.7429 16.25 14.7429C16.4489 14.7429 16.6397 14.6639 16.7803 14.5232C16.921 14.3826 17 14.1918 17 13.9929C17 12.9983 16.6049 12.0445 15.9017 11.3413C15.1984 10.638 14.2446 10.2429 13.25 10.2429Z" fill="#8B949E"/>
</svg>
