<svg width="48" height="20" viewBox="0 0 48 20" fill="none" xmlns="http://www.w3.org/2000/svg">
<rect x="0.5" y="0.5" width="47" height="19" rx="9.5" stroke="#343942"/>
<path d="M10.4258 11.9531V15H9.03711V6.59766H11.5859C12.5508 6.59766 13.2988 6.82227 13.8301 7.27148C14.3613 7.7207 14.627 8.35352 14.627 9.16992C14.627 9.98633 14.3496 10.6543 13.7949 11.1738C13.2402 11.6934 12.4902 11.9531 11.5449 11.9531H10.4258ZM10.4258 7.74609V10.8164H11.3281C11.9258 10.8164 12.3809 10.6777 12.6934 10.4004C13.0059 10.123 13.1621 9.73242 13.1621 9.22852C13.1621 8.24023 12.5879 7.74609 11.4395 7.74609H10.4258ZM20.8967 15H19.5373V14.0508H19.5139C19.1194 14.7773 18.5061 15.1406 17.6741 15.1406C16.2561 15.1406 15.5471 14.2891 15.5471 12.5859V9H16.9065V12.4453C16.9065 13.5234 17.3225 14.0625 18.1545 14.0625C18.5569 14.0625 18.887 13.9141 19.1448 13.6172C19.4065 13.3203 19.5373 12.9316 19.5373 12.4512V9H20.8967V15ZM23.8149 14.1328H23.7915V15H22.4321V6.11719H23.7915V10.0547H23.8149C24.2798 9.25781 24.9595 8.85938 25.854 8.85938C26.6118 8.85938 27.2036 9.12891 27.6294 9.66797C28.0591 10.2031 28.2739 10.9219 28.2739 11.8242C28.2739 12.8281 28.0337 13.6328 27.5532 14.2383C27.0727 14.8398 26.4165 15.1406 25.5845 15.1406C24.8032 15.1406 24.2134 14.8047 23.8149 14.1328ZM23.7798 11.748V12.4922C23.7798 12.9297 23.9184 13.3008 24.1958 13.6055C24.477 13.9102 24.8325 14.0625 25.2622 14.0625C25.7661 14.0625 26.1606 13.8672 26.4458 13.4766C26.7348 13.082 26.8794 12.5332 26.8794 11.8301C26.8794 11.2402 26.7446 10.7793 26.4751 10.4473C26.2095 10.1113 25.8481 9.94336 25.3911 9.94336C24.9067 9.94336 24.5161 10.1152 24.2192 10.459C23.9263 10.8027 23.7798 11.2324 23.7798 11.748ZM30.7878 15H29.4226V6.11719H30.7878V15ZM33.0088 7.74023C32.7861 7.74023 32.5947 7.66797 32.4345 7.52344C32.2783 7.37891 32.2002 7.19531 32.2002 6.97266C32.2002 6.75 32.2783 6.56445 32.4345 6.41602C32.5947 6.26758 32.7861 6.19336 33.0088 6.19336C33.2392 6.19336 33.4345 6.26758 33.5947 6.41602C33.7548 6.56445 33.8349 6.75 33.8349 6.97266C33.8349 7.18359 33.7548 7.36523 33.5947 7.51758C33.4345 7.66602 33.2392 7.74023 33.0088 7.74023ZM33.6826 15H32.3232V9H33.6826V15ZM39.5187 14.7246C39.0383 15.002 38.4699 15.1406 37.8137 15.1406C36.923 15.1406 36.2043 14.8633 35.6574 14.3086C35.1105 13.75 34.8371 13.0273 34.8371 12.1406C34.8371 11.1523 35.1301 10.3594 35.716 9.76172C36.3059 9.16016 37.093 8.85938 38.0773 8.85938C38.6242 8.85938 39.1066 8.95508 39.5246 9.14648V10.4121C39.1066 10.0996 38.6613 9.94336 38.1887 9.94336C37.6145 9.94336 37.1437 10.1387 36.7766 10.5293C36.4094 10.916 36.2258 11.4238 36.2258 12.0527C36.2258 12.6738 36.3977 13.1641 36.7414 13.5234C37.0891 13.8828 37.5539 14.0625 38.1359 14.0625C38.6242 14.0625 39.0852 13.8887 39.5187 13.541V14.7246Z" fill="#6E7681"/>
</svg>
