<svg width="18" height="18" viewBox="0 0 18 18" fill="none" xmlns="http://www.w3.org/2000/svg">
<path d="M13.4427 16.0531C13.3228 16.0536 13.2045 16.0253 13.0977 15.9706L9.27271 13.9681L5.44771 15.9706C5.3235 16.0359 5.18347 16.065 5.04352 16.0547C4.90357 16.0444 4.76932 15.995 4.65603 15.9122C4.54274 15.8294 4.45497 15.7165 4.40267 15.5862C4.35038 15.456 4.33567 15.3137 4.36021 15.1756L5.11021 10.9531L2.02021 7.95307C1.9238 7.85686 1.85541 7.73622 1.82238 7.60409C1.78935 7.47196 1.79292 7.33333 1.83271 7.20307C1.87618 7.06978 1.95614 6.95133 2.06352 6.86119C2.1709 6.77104 2.3014 6.7128 2.44021 6.69307L6.71521 6.07057L8.59771 2.22307C8.65912 2.09627 8.75501 1.98933 8.87439 1.9145C8.99377 1.83967 9.13182 1.79999 9.27271 1.79999C9.4136 1.79999 9.55165 1.83967 9.67103 1.9145C9.79041 1.98933 9.8863 2.09627 9.94771 2.22307L11.8527 6.06307L16.1277 6.68557C16.2665 6.7053 16.397 6.76354 16.5044 6.85369C16.6118 6.94384 16.6917 7.06228 16.7352 7.19557C16.775 7.32583 16.7786 7.46446 16.7455 7.59659C16.7125 7.72872 16.6441 7.84936 16.5477 7.94557L13.4577 10.9456L14.2077 15.1681C14.2345 15.3087 14.2205 15.454 14.1673 15.5869C14.1141 15.7198 14.0241 15.8347 13.9077 15.9181C13.7719 16.0132 13.6084 16.0607 13.4427 16.0531ZM9.27271 12.3781C9.39293 12.375 9.51186 12.4035 9.61771 12.4606L12.4452 13.9606L11.9052 10.8031C11.8843 10.6825 11.8931 10.5586 11.931 10.4423C11.9689 10.326 12.0348 10.2206 12.1227 10.1356L14.3727 7.93807L11.2227 7.47307C11.1072 7.44981 10.9988 7.39967 10.9063 7.3267C10.8138 7.25373 10.7397 7.15999 10.6902 7.05307L9.27271 4.24057L7.85521 7.05307C7.80095 7.16085 7.72148 7.25394 7.62355 7.32445C7.52563 7.39496 7.41213 7.44079 7.29271 7.45807L4.14271 7.92307L6.39271 10.1206C6.48067 10.2056 6.54647 10.311 6.58438 10.4273C6.62229 10.5436 6.63116 10.6675 6.61021 10.7881L6.07021 13.9081L8.89771 12.4081C9.01752 12.3635 9.14734 12.3531 9.27271 12.3781Z" fill="#8B949E"/>
</svg>
