<svg width="18" height="18" viewBox="0 0 18 18" fill="none" xmlns="http://www.w3.org/2000/svg">
<path d="M2.70001 3.48751C2.70001 3.27865 2.78298 3.07835 2.93067 2.93067C3.07835 2.78298 3.27865 2.70001 3.48751 2.70001H14.5125C14.7214 2.70001 14.9217 2.78298 15.0694 2.93067C15.217 3.07835 15.3 3.27865 15.3 3.48751V5.06251C15.3 5.27137 15.217 5.47167 15.0694 5.61936C14.9217 5.76704 14.7214 5.85001 14.5125 5.85001H3.48751C3.27865 5.85001 3.07835 5.76704 2.93067 5.61936C2.78298 5.47167 2.70001 5.27137 2.70001 5.06251V3.48751ZM2.70001 9.78751C2.70001 9.57865 2.78298 9.37835 2.93067 9.23067C3.07835 9.08298 3.27865 9.00001 3.48751 9.00001H8.21251C8.42137 9.00001 8.62167 9.08298 8.76936 9.23067C8.91704 9.37835 9.00001 9.57865 9.00001 9.78751V14.5125C9.00001 14.7214 8.91704 14.9217 8.76936 15.0694C8.62167 15.217 8.42137 15.3 8.21251 15.3H3.48751C3.27865 15.3 3.07835 15.217 2.93067 15.0694C2.78298 14.9217 2.70001 14.7214 2.70001 14.5125V9.78751ZM12.15 9.78751C12.15 9.57865 12.233 9.37835 12.3807 9.23067C12.5284 9.08298 12.7287 9.00001 12.9375 9.00001H14.5125C14.7214 9.00001 14.9217 9.08298 15.0694 9.23067C15.217 9.37835 15.3 9.57865 15.3 9.78751V14.5125C15.3 14.7214 15.217 14.9217 15.0694 15.0694C14.9217 15.217 14.7214 15.3 14.5125 15.3H12.9375C12.7287 15.3 12.5284 15.217 12.3807 15.0694C12.233 14.9217 12.15 14.7214 12.15 14.5125V9.78751Z" stroke="#8B949E" stroke-width="1.6" stroke-linecap="round" stroke-linejoin="round"/>
</svg>
